<svg width="14" height="18" viewBox="0 0 14 18" fill="none" xmlns="http://www.w3.org/2000/svg">
<path d="M12.1747 12.907L12.6563 13.0417L12.6583 13.0341L12.1747 12.907ZM12.5918 8.81397L12.2722 9.19849L12.2934 9.21614L12.3164 9.23134L12.5918 8.81397ZM11.4039 8.81395L11.6285 9.26068L11.4039 8.81395ZM5.53774 14.8347C5.57484 15.1083 5.82675 15.3001 6.10039 15.263C6.37403 15.2259 6.56578 14.974 6.52867 14.7003L5.53774 14.8347ZM9.08868 12.907L9.20765 12.4213L9.08868 12.907ZM10.6324 10.6744L10.1541 10.5286L10.6324 10.6744ZM8.18382 9.42778C8.22386 9.27996 8.31772 9.19563 8.36592 9.15965C8.41652 9.12189 8.4626 9.10279 8.48449 9.09448C8.52913 9.07756 8.56445 9.0721 8.5714 9.07099C8.59139 9.06781 8.60058 9.06812 8.58689 9.06865C8.56498 9.06949 8.52239 9.06959 8.45441 9.06796C8.3217 9.06477 8.12763 9.05598 7.8861 9.0432C7.40271 9.01763 6.75842 8.97774 6.08194 8.93946C5.40971 8.90141 4.71083 8.86528 4.13431 8.84835C3.84637 8.83989 3.58421 8.83608 3.3688 8.83954C3.16751 8.84278 2.96549 8.85244 2.82258 8.88349L3.03491 9.86069C3.0683 9.85344 3.17712 9.84276 3.38489 9.83942C3.57855 9.8363 3.82369 9.83966 4.10496 9.84792C4.6669 9.86442 5.35419 9.89987 6.02544 9.93786C6.69245 9.97561 7.34896 10.0162 7.83328 10.0418C8.07561 10.0546 8.28212 10.0641 8.43042 10.0677C8.50294 10.0694 8.57097 10.07 8.62524 10.0679C8.64964 10.067 8.68831 10.065 8.72861 10.0586C8.74572 10.0558 8.7889 10.0485 8.83903 10.0295C8.86367 10.0202 8.9119 9.99998 8.96406 9.96105C9.01382 9.92391 9.10863 9.83836 9.14903 9.68926L8.18382 9.42778ZM2.82258 8.88349C2.52872 8.94734 2.35266 9.17482 2.25809 9.32896C2.15213 9.50167 2.06948 9.71279 2.00285 9.92833C1.86827 10.3637 1.76975 10.9152 1.70343 11.4616C1.63666 12.0118 1.60004 12.5779 1.59548 13.0508C1.59319 13.287 1.59884 13.506 1.61389 13.6915C1.62777 13.8627 1.65271 14.052 1.70895 14.2004L2.64409 13.8461C2.64542 13.8496 2.63931 13.8332 2.63123 13.7859C2.6237 13.7419 2.61653 13.6837 2.61061 13.6107C2.59876 13.4646 2.59333 13.2775 2.59543 13.0605C2.59962 12.6269 2.63355 12.0978 2.69615 11.5821C2.7592 11.0626 2.84885 10.5776 2.95825 10.2237C3.01361 10.0446 3.0669 9.9229 3.11047 9.85189C3.16542 9.76232 3.15246 9.83515 3.03491 9.86069L2.82258 8.88349ZM1.70895 14.2004C1.83378 14.5299 2.15245 15.367 2.98078 16.1158C3.81881 16.8734 5.13188 17.5 7.17198 17.5V16.5C5.35459 16.5 4.28778 15.9493 3.65137 15.374C3.00527 14.79 2.75495 14.1387 2.64409 13.8461L1.70895 14.2004ZM7.17198 17.5C9.30651 17.5 10.6903 16.3581 11.5197 15.2538C11.9331 14.7033 12.215 14.1557 12.3937 13.7467C12.4833 13.5415 12.5477 13.3694 12.5903 13.2468C12.6116 13.1855 12.6275 13.1364 12.6383 13.1015C12.6437 13.0841 12.6479 13.0703 12.6509 13.0602C12.6523 13.0552 12.6535 13.0511 12.6544 13.048C12.6549 13.0465 12.6552 13.0452 12.6555 13.0441C12.6557 13.0436 12.6558 13.0431 12.6559 13.0427C12.656 13.0425 12.656 13.0423 12.6561 13.0422C12.6561 13.0419 12.6562 13.0417 12.1747 12.907C11.6932 12.7723 11.6932 12.7721 11.6933 12.7719C11.6933 12.7719 11.6933 12.7717 11.6934 12.7716C11.6934 12.7715 11.6934 12.7714 11.6934 12.7714C11.6935 12.7713 11.6934 12.7715 11.6933 12.7719C11.693 12.7727 11.6925 12.7745 11.6917 12.7773C11.6901 12.7827 11.6874 12.7918 11.6835 12.8044C11.6757 12.8295 11.6631 12.8683 11.6456 12.9189C11.6105 13.0201 11.5553 13.1678 11.4773 13.3464C11.3207 13.7048 11.0752 14.1804 10.7201 14.6532C10.0125 15.5954 8.89493 16.5 7.17198 16.5V17.5ZM12.1747 12.907C12.6583 13.0341 12.6583 13.034 12.6583 13.034C12.6583 13.034 12.6583 13.034 12.6583 13.0339C12.6583 13.0339 12.6583 13.0338 12.6584 13.0336C12.6585 13.0334 12.6586 13.033 12.6587 13.0324C12.659 13.0314 12.6594 13.0298 12.66 13.0276C12.6611 13.0234 12.6627 13.0171 12.6649 13.0088C12.6693 12.9923 12.6756 12.9679 12.6839 12.9367C12.7003 12.8742 12.724 12.7841 12.753 12.6737C12.811 12.4528 12.8905 12.1505 12.9761 11.825C13.1474 11.1738 13.3432 10.43 13.4416 10.0581L12.4748 9.80233C12.3762 10.175 12.1802 10.9196 12.009 11.5706C11.9234 11.8962 11.8439 12.1986 11.7858 12.4195C11.7568 12.5299 11.7331 12.62 11.7167 12.6825C11.7085 12.7138 11.7021 12.7381 11.6977 12.7547C11.6956 12.7629 11.6939 12.7693 11.6928 12.7735C11.6922 12.7756 11.6918 12.7772 11.6915 12.7783C11.6914 12.7788 11.6913 12.7793 11.6912 12.7795C11.6912 12.7797 11.6912 12.7798 11.6911 12.7798C11.6911 12.7799 11.6911 12.7799 11.6911 12.7799C11.6911 12.7799 11.6911 12.7799 12.1747 12.907ZM13.4416 10.0581C13.5805 9.53319 13.4511 9.11314 13.2729 8.82791C13.1869 8.69038 13.0923 8.5877 13.0181 8.51834C12.9807 8.48337 12.9474 8.45593 12.9215 8.43588C12.9085 8.42583 12.8972 8.41755 12.8881 8.41102C12.8835 8.40776 12.8794 8.40493 12.8759 8.40253C12.8741 8.40133 12.8725 8.40023 12.8711 8.39925C12.8703 8.39875 12.8696 8.39829 12.869 8.39785C12.8686 8.39763 12.8683 8.39741 12.868 8.3972C12.8678 8.3971 12.8676 8.39695 12.8675 8.3969C12.8673 8.39675 12.8671 8.3966 12.5918 8.81397C12.3164 9.23134 12.3162 9.23119 12.316 9.23105C12.3159 9.231 12.3157 9.23086 12.3156 9.23077C12.3153 9.23058 12.315 9.2304 12.3148 9.23023C12.3142 9.22988 12.3137 9.22955 12.3133 9.22924C12.3124 9.22861 12.3115 9.22806 12.3109 9.22759C12.3095 9.22664 12.3085 9.22599 12.308 9.22563C12.307 9.22491 12.3077 9.22535 12.3097 9.22691C12.3138 9.2301 12.3231 9.23752 12.3354 9.24902C12.3606 9.27263 12.3946 9.30941 12.4249 9.35787C12.4791 9.44463 12.533 9.58271 12.4748 9.80233L13.4416 10.0581ZM10.7773 12.163C10.7773 12.1493 10.7806 12.0332 10.7117 11.9112C10.6692 11.8358 10.5803 11.7271 10.4235 11.6784C10.27 11.6307 10.1395 11.668 10.0683 11.7001C9.94873 11.7539 9.88431 11.8405 9.87503 11.8524C9.8522 11.8816 9.83647 11.9081 9.82752 11.924C9.79413 11.9835 9.7708 12.0485 9.7551 12.1001C9.72057 12.2137 9.68975 12.3733 9.69266 12.5546C9.69878 12.9363 9.86267 13.4368 10.4386 13.7261L10.8875 12.8325C10.7232 12.75 10.6942 12.6455 10.6925 12.5386C10.6915 12.4756 10.703 12.42 10.7118 12.3911C10.7178 12.3715 10.7164 12.3835 10.6995 12.4136C10.6946 12.4222 10.6827 12.4429 10.6632 12.4678C10.6573 12.4754 10.5958 12.5593 10.4787 12.612C10.4086 12.6435 10.2792 12.6807 10.1267 12.6333C9.97085 12.5849 9.88274 12.4769 9.84082 12.4026C9.77328 12.2829 9.77727 12.1708 9.77727 12.163H10.7773ZM10.4386 13.7261C11.01 14.0132 11.5671 13.8524 11.9161 13.6818C12.096 13.5938 12.2437 13.4929 12.3457 13.4151C12.3973 13.3758 12.4387 13.3412 12.4684 13.3154C12.4832 13.3024 12.4952 13.2916 12.5042 13.2834C12.5087 13.2793 12.5124 13.2758 12.5153 13.273C12.5168 13.2716 12.5181 13.2704 12.5192 13.2694C12.5197 13.2689 12.5202 13.2684 12.5206 13.268C12.5209 13.2678 12.5211 13.2676 12.5213 13.2674C12.5214 13.2673 12.5215 13.2672 12.5215 13.2671C12.5217 13.267 12.5218 13.2669 12.1747 12.907C11.8276 12.5471 11.8277 12.547 11.8278 12.5469C11.8279 12.5468 11.828 12.5467 11.8281 12.5467C11.8282 12.5465 11.8283 12.5464 11.8285 12.5463C11.8287 12.546 11.8289 12.5458 11.8291 12.5457C11.8294 12.5453 11.8296 12.5452 11.8296 12.5452C11.8296 12.5452 11.8289 12.5459 11.8275 12.5471C11.8248 12.5496 11.8195 12.5544 11.8118 12.5611C11.7964 12.5745 11.7717 12.5952 11.7394 12.6198C11.6737 12.67 11.5822 12.7319 11.4768 12.7834C11.2549 12.8919 11.0562 12.9173 10.8875 12.8325L10.4386 13.7261ZM11.6285 9.26068C11.8935 9.12747 12.0717 9.14085 12.1645 9.16197C12.2156 9.1736 12.2519 9.19033 12.2716 9.20104C12.2814 9.20636 12.2867 9.20994 12.287 9.2102C12.2872 9.21031 12.2861 9.20954 12.2836 9.20768C12.2824 9.20675 12.2809 9.20553 12.2789 9.20401C12.278 9.20325 12.2769 9.20242 12.2758 9.2015C12.2753 9.20104 12.2747 9.20056 12.2741 9.20006C12.2738 9.19981 12.2734 9.19955 12.2731 9.19929C12.273 9.19916 12.2727 9.19896 12.2727 9.1989C12.2724 9.1987 12.2722 9.19849 12.5918 8.81397C12.9114 8.42945 12.9111 8.42924 12.9109 8.42903C12.9108 8.42896 12.9105 8.42876 12.9104 8.42861C12.91 8.42833 12.9097 8.42804 12.9093 8.42775C12.9086 8.42716 12.9078 8.42654 12.9071 8.42591C12.9055 8.42463 12.9038 8.42327 12.902 8.42181C12.8983 8.41891 12.8942 8.41565 12.8895 8.41208C12.8801 8.40495 12.8686 8.39656 12.8551 8.38722C12.8281 8.36858 12.7926 8.346 12.7488 8.32224C12.6615 8.27481 12.5396 8.22177 12.3863 8.18689C12.0702 8.11497 11.6545 8.12834 11.1793 8.36722L11.6285 9.26068ZM2.92874 9.37209C3.40592 9.22275 3.40591 9.22274 3.40591 9.22271C3.40589 9.22267 3.40588 9.22262 3.40585 9.22254C3.40581 9.22239 3.40573 9.22216 3.40563 9.22184C3.40544 9.22122 3.40514 9.22026 3.40474 9.21899C3.40395 9.21644 3.40275 9.21262 3.40117 9.20754C3.398 9.1974 3.39328 9.18227 3.3871 9.16245C3.37475 9.1228 3.35658 9.06435 3.33336 8.98939C3.28691 8.83947 3.22027 8.62349 3.1396 8.35962C2.97821 7.83176 2.76083 7.11278 2.53665 6.34776C2.08285 4.79908 1.61803 3.11696 1.51386 2.41499L0.524691 2.56178C0.64138 3.34813 1.13129 5.10787 1.57701 6.62896C1.80259 7.39882 2.02117 8.12171 2.1833 8.652C2.26438 8.9172 2.33138 9.13437 2.37815 9.28531C2.40153 9.36079 2.41985 9.41972 2.43235 9.45983C2.43859 9.47988 2.44338 9.49523 2.44662 9.5056C2.44824 9.51078 2.44946 9.51471 2.45029 9.51736C2.45071 9.51869 2.45102 9.5197 2.45124 9.52038C2.45134 9.52072 2.45142 9.52097 2.45148 9.52115C2.45151 9.52124 2.45153 9.52131 2.45154 9.52136C2.45156 9.52141 2.45157 9.52144 2.92874 9.37209ZM1.51386 2.41499C1.4737 2.14435 1.52607 1.9639 1.60005 1.84405C1.67648 1.72024 1.80019 1.62224 1.96309 1.5619C2.31123 1.43293 2.72774 1.51148 2.95587 1.73177L3.65051 1.01242C3.10794 0.488489 2.27206 0.381025 1.61571 0.624174C1.27636 0.749886 0.959792 0.977488 0.749114 1.31879C0.535987 1.66406 0.454426 2.08826 0.524691 2.56178L1.51386 2.41499ZM2.95587 1.73177C2.97964 1.75473 3.04397 1.84279 3.13536 2.04636C3.22048 2.23597 3.3098 2.48089 3.40315 2.76996C3.59033 3.34956 3.77759 4.05475 3.97235 4.76087C4.16372 5.45468 4.36354 6.154 4.56993 6.68202C4.67206 6.94334 4.78677 7.19198 4.91828 7.38341C5.02541 7.53937 5.2562 7.82558 5.62898 7.82558V6.82558C5.80127 6.82558 5.83308 6.94901 5.74252 6.81718C5.67633 6.72082 5.5946 6.55667 5.50131 6.31799C5.31684 5.84602 5.12985 5.19652 4.93635 4.49498C4.74625 3.80576 4.55061 3.06909 4.35476 2.46264C4.25659 2.15868 4.15437 1.87453 4.04765 1.63682C3.9472 1.41306 3.81941 1.17552 3.65051 1.01242L2.95587 1.73177ZM5.62898 7.82558C6.01555 7.82558 6.23834 7.52219 6.33674 7.36201C6.45668 7.16677 6.55489 6.91513 6.63971 6.65501C6.81089 6.13003 6.97098 5.42897 7.1335 4.74322C7.29965 4.04222 7.47065 3.34611 7.66819 2.78139C7.76679 2.49952 7.8667 2.26617 7.96759 2.08906C8.07254 1.90482 8.15573 1.82232 8.20187 1.79266L7.66098 0.951559C7.41781 1.10794 7.23713 1.35103 7.09867 1.59411C6.95615 1.84432 6.83312 2.14005 6.72428 2.4512C6.50693 3.07252 6.32502 3.81826 6.16046 4.51261C5.99228 5.22221 5.84386 5.86998 5.68897 6.345C5.61076 6.58487 5.54153 6.74602 5.48468 6.83857C5.40628 6.96618 5.44291 6.82558 5.62898 6.82558V7.82558ZM8.20187 1.79266C8.68082 1.48466 8.9135 1.55753 9.01538 1.61731C9.16373 1.70435 9.30519 1.9205 9.37184 2.22366L10.3485 2.00893C10.2515 1.56789 10.0073 1.03986 9.52144 0.75481C8.98916 0.442495 8.33928 0.51537 7.66098 0.951559L8.20187 1.79266ZM9.37184 2.22366C9.36934 2.21228 9.37463 2.2351 9.37376 2.31721C9.37299 2.39035 9.3678 2.48717 9.35763 2.60772C9.33733 2.84833 9.29922 3.16033 9.24767 3.52266C9.14473 4.24608 8.99168 5.14597 8.8326 6.0277C8.67371 6.90839 8.50962 7.76645 8.3852 8.40464C8.323 8.72364 8.27075 8.9875 8.23407 9.17152C8.21573 9.26352 8.20129 9.33556 8.19144 9.38454C8.18651 9.40903 8.18274 9.42776 8.1802 9.44033C8.17893 9.44662 8.17797 9.45136 8.17733 9.45453C8.17701 9.45611 8.17677 9.45729 8.17661 9.45808C8.17653 9.45847 8.17647 9.45876 8.17644 9.45895C8.17642 9.45904 8.1764 9.45911 8.17639 9.45916C8.17639 9.4592 8.17638 9.45921 8.66642 9.55852C9.15646 9.65783 9.15647 9.65779 9.15648 9.65773C9.15649 9.65767 9.15651 9.65759 9.15653 9.65748C9.15658 9.65726 9.15664 9.65694 9.15672 9.65652C9.1569 9.65568 9.15715 9.65443 9.15748 9.65279C9.15814 9.64951 9.15913 9.64464 9.16042 9.63823C9.16301 9.62541 9.16684 9.60644 9.17181 9.58169C9.18177 9.53219 9.19632 9.4596 9.21478 9.367C9.25169 9.18181 9.30421 8.91657 9.36671 8.59601C9.49168 7.95506 9.65671 7.0921 9.81671 6.20525C9.97652 5.31946 10.1321 4.40531 10.2377 3.66354C10.2904 3.29328 10.3315 2.95989 10.3541 2.69177C10.3654 2.55794 10.3726 2.43456 10.3737 2.32782C10.3747 2.23005 10.3715 2.11333 10.3485 2.00893L9.37184 2.22366ZM8.66642 9.55852C9.16365 9.61109 9.16363 9.61126 9.16362 9.61141C9.16361 9.61145 9.1636 9.6116 9.16359 9.61169C9.16357 9.61186 9.16355 9.612 9.16354 9.61212C9.16351 9.61236 9.1635 9.61248 9.1635 9.6125C9.16349 9.61254 9.16354 9.61215 9.16363 9.61135C9.16382 9.60975 9.16421 9.60651 9.16483 9.60173C9.16606 9.59217 9.1682 9.57655 9.17145 9.55573C9.17798 9.51397 9.18886 9.45204 9.20567 9.37682C9.23977 9.22425 9.29593 9.02762 9.38357 8.83669C9.56629 8.43866 9.81374 8.19768 10.1781 8.19768V7.19768C9.22751 7.19768 8.71914 7.88712 8.47475 8.41951C8.34884 8.69379 8.27363 8.96237 8.22975 9.1587C8.20757 9.25793 8.19281 9.34138 8.18344 9.40139C8.17874 9.43145 8.17537 9.45581 8.17308 9.47351C8.17194 9.48236 8.17106 9.48957 8.17042 9.49501C8.1701 9.49773 8.16984 9.50001 8.16964 9.50184C8.16954 9.50275 8.16945 9.50355 8.16938 9.50424C8.16934 9.50458 8.16931 9.50489 8.16928 9.50518C8.16926 9.50532 8.16924 9.50551 8.16923 9.50558C8.16921 9.50576 8.16919 9.50594 8.66642 9.55852ZM10.1781 8.19768C10.4352 8.19768 10.5842 8.25174 10.6694 8.30222C10.7532 8.35187 10.8041 8.41511 10.8385 8.48269C10.8751 8.55459 10.8931 8.63259 10.9006 8.69742C10.9043 8.72862 10.9051 8.75341 10.9052 8.76817C10.9052 8.77544 10.905 8.77994 10.905 8.78118C10.905 8.78178 10.905 8.78155 10.905 8.78042C10.9051 8.77985 10.9051 8.77905 10.9052 8.77802C10.9052 8.7775 10.9053 8.77692 10.9053 8.77628C10.9054 8.77597 10.9054 8.77563 10.9054 8.77528C10.9054 8.77511 10.9054 8.77483 10.9054 8.77475C10.9055 8.77447 10.9055 8.77419 11.4039 8.81395C11.9023 8.85371 11.9023 8.85342 11.9024 8.85313C11.9024 8.85302 11.9024 8.85272 11.9024 8.85251C11.9025 8.8521 11.9025 8.85166 11.9025 8.85121C11.9026 8.8503 11.9027 8.84932 11.9027 8.84827C11.9029 8.84616 11.903 8.84376 11.9032 8.84108C11.9035 8.83572 11.9039 8.82922 11.9042 8.82165C11.9048 8.80654 11.9053 8.78705 11.9052 8.7638C11.905 8.71751 11.9025 8.65509 11.8939 8.58165C11.8771 8.43717 11.8351 8.2361 11.7296 8.02894C11.6219 7.81745 11.4486 7.60162 11.1793 7.44198C10.9113 7.28316 10.5784 7.19768 10.1781 7.19768V8.19768ZM7.94367 11.663C7.75557 11.6629 6.81051 11.6257 5.96705 11.6062C5.55798 11.5968 5.17151 11.5916 4.93681 11.5992C4.87787 11.6012 4.81992 11.6041 4.7699 11.6091C4.74542 11.6116 4.7144 11.6153 4.68214 11.6216C4.66711 11.6246 4.58607 11.639 4.50274 11.6878C4.46638 11.709 4.34297 11.7854 4.28209 11.95C4.20375 12.1618 4.28554 12.3443 4.36028 12.4385C4.42222 12.5166 4.49185 12.5567 4.51674 12.5704C4.54958 12.5885 4.5788 12.6002 4.59717 12.607C4.66112 12.6306 4.73368 12.6451 4.78569 12.6546L4.96624 11.6711C4.91516 11.6617 4.91848 11.6596 4.94338 11.6688C4.95199 11.672 4.97333 11.6802 5.00012 11.695C5.01896 11.7054 5.08438 11.7422 5.14387 11.8172C5.21617 11.9084 5.2973 12.0879 5.22 12.2969C5.16017 12.4586 5.03952 12.5323 5.00758 12.551C4.96258 12.5773 4.92455 12.5895 4.91046 12.5938C4.89277 12.5992 4.8796 12.602 4.87418 12.603C4.86359 12.6051 4.86042 12.6051 4.86953 12.6041C4.88666 12.6024 4.9188 12.6004 4.96922 12.5987C5.17197 12.5921 5.53143 12.5965 5.944 12.606C6.74379 12.6244 7.74479 12.6629 7.94327 12.663L7.94367 11.663ZM4.78569 12.6546C4.76541 12.6509 4.84181 12.662 4.97319 12.8863C5.09049 13.0866 5.19577 13.363 5.28419 13.6632C5.37112 13.9583 5.43491 14.2525 5.4771 14.475C5.49808 14.5856 5.51346 14.6771 5.5235 14.7403C5.52851 14.7718 5.53219 14.7962 5.53455 14.8124C5.53573 14.8204 5.53659 14.8264 5.53712 14.8302C5.53738 14.8321 5.53757 14.8334 5.53767 14.8342C5.53772 14.8345 5.53775 14.8348 5.53777 14.8349C5.53777 14.8349 5.53777 14.8349 5.53777 14.8349C5.53777 14.8349 5.53776 14.8348 5.53776 14.8348C5.53775 14.8347 5.53774 14.8347 6.03321 14.7675C6.52867 14.7003 6.52866 14.7002 6.52865 14.7001C6.52864 14.7001 6.52863 14.7 6.52861 14.6999C6.52859 14.6997 6.52856 14.6995 6.52853 14.6992C6.52846 14.6987 6.52837 14.6981 6.52826 14.6973C6.52803 14.6957 6.52773 14.6935 6.52734 14.6907C6.52656 14.6852 6.52545 14.6774 6.52399 14.6674C6.52108 14.6476 6.5168 14.6191 6.51111 14.5833C6.49974 14.5118 6.48268 14.4104 6.45959 14.2886C6.41364 14.0464 6.34274 13.7178 6.24344 13.3807C6.14562 13.0486 6.01312 12.6833 5.83613 12.381C5.67323 12.1028 5.39881 11.7505 4.96624 11.6711L4.78569 12.6546ZM8.66642 9.55852C8.34913 9.94495 8.34885 9.94472 8.34858 9.94449C8.34849 9.94442 8.34822 9.94419 8.34804 9.94405C8.34768 9.94375 8.34733 9.94346 8.34699 9.94318C8.3463 9.94261 8.34564 9.94205 8.34501 9.94152C8.34374 9.94045 8.34258 9.93946 8.34151 9.93855C8.33939 9.93672 8.33768 9.93521 8.33635 9.93401C8.3337 9.93161 8.33259 9.93049 8.33282 9.93072C8.33328 9.93118 8.33917 9.9371 8.34896 9.94915C8.36836 9.97306 8.40406 10.0223 8.44326 10.1028C8.52067 10.2618 8.61919 10.5581 8.61919 11.0466H9.61919C9.61919 10.4187 9.49133 9.97102 9.34235 9.66505C9.26836 9.5131 9.19087 9.39962 9.12538 9.31894C9.09271 9.2787 9.06323 9.24685 9.03893 9.22262C9.02679 9.21051 9.01595 9.20031 9.00666 9.19192C9.00202 9.18773 8.99776 9.18399 8.99393 9.18069C8.99201 9.17904 8.9902 9.1775 8.98849 9.17606C8.98764 9.17535 8.98682 9.17466 8.98602 9.174C8.98562 9.17367 8.98523 9.17334 8.98485 9.17302C8.98465 9.17286 8.98437 9.17263 8.98427 9.17255C8.98399 9.17232 8.98371 9.17209 8.66642 9.55852ZM8.61919 11.0466C8.61919 11.2326 8.572 11.3395 8.52628 11.4046C8.47743 11.4742 8.40664 11.5291 8.31686 11.5717C8.22573 11.615 8.12819 11.6391 8.04897 11.6517C8.01059 11.6578 7.97962 11.6606 7.9601 11.662C7.95042 11.6626 7.94381 11.6629 7.9408 11.663C7.9393 11.663 7.93872 11.663 7.93912 11.663C7.93933 11.663 7.93978 11.663 7.94049 11.663C7.94085 11.663 7.94127 11.663 7.94175 11.663C7.942 11.663 7.94225 11.663 7.94253 11.663C7.94267 11.663 7.94289 11.663 7.94296 11.663C7.94318 11.663 7.94341 11.663 7.94347 12.163C7.94354 12.663 7.94378 12.663 7.94402 12.663C7.9441 12.663 7.94435 12.663 7.94452 12.663C7.94487 12.663 7.94524 12.663 7.94562 12.663C7.94639 12.663 7.94724 12.663 7.94816 12.663C7.95 12.663 7.95214 12.6629 7.95457 12.6629C7.95942 12.6628 7.96545 12.6627 7.97256 12.6625C7.98677 12.662 8.00542 12.6612 8.02789 12.6597C8.07266 12.6566 8.13355 12.6508 8.20539 12.6394C8.34661 12.617 8.543 12.5714 8.74581 12.475C8.94996 12.3781 9.1731 12.2237 9.3447 11.9792C9.51942 11.7304 9.61919 11.4186 9.61919 11.0466H8.61919ZM7.94347 12.163C7.5322 12.4473 7.53231 12.4475 7.53242 12.4477C7.53246 12.4477 7.53257 12.4479 7.53264 12.448C7.5328 12.4482 7.53296 12.4484 7.53313 12.4487C7.53346 12.4492 7.53382 12.4497 7.53421 12.4502C7.53498 12.4513 7.53585 12.4526 7.53682 12.4539C7.53877 12.4567 7.54113 12.46 7.54389 12.4638C7.54942 12.4714 7.5566 12.481 7.56542 12.4924C7.58305 12.5153 7.60736 12.5456 7.63837 12.5812C7.70022 12.6523 7.7898 12.7461 7.90737 12.8461C8.14162 13.0453 8.49605 13.2766 8.96971 13.3926L9.20765 12.4213C8.92185 12.3513 8.70368 12.2106 8.55519 12.0843C8.48139 12.0216 8.42707 11.9643 8.39285 11.9249C8.37583 11.9054 8.36408 11.8906 8.35764 11.8822C8.35444 11.8781 8.35258 11.8755 8.35209 11.8749C8.35185 11.8745 8.35194 11.8746 8.35239 11.8753C8.35261 11.8756 8.35291 11.876 8.35331 11.8766C8.3535 11.8769 8.35372 11.8772 8.35396 11.8775C8.35408 11.8777 8.35421 11.8779 8.35434 11.8781C8.3544 11.8782 8.35451 11.8783 8.35454 11.8783C8.35464 11.8785 8.35475 11.8786 7.94347 12.163ZM8.96971 13.3926C9.63244 13.555 10.1068 13.2509 10.3782 12.9468C10.5093 12.7997 10.5997 12.6482 10.6568 12.5367C10.6858 12.48 10.7076 12.4311 10.7226 12.3948C10.7302 12.3765 10.7361 12.3613 10.7405 12.3495C10.7428 12.3437 10.7446 12.3386 10.746 12.3346C10.7468 12.3325 10.7474 12.3307 10.748 12.3292C10.7482 12.3284 10.7485 12.3277 10.7487 12.327C10.7488 12.3267 10.7489 12.3264 10.7491 12.3261C10.7491 12.3259 10.7492 12.3257 10.7492 12.3256C10.7493 12.3254 10.7493 12.3252 10.2764 12.1628C9.80353 12.0005 9.8036 12.0003 9.80367 12.0001C9.80369 12 9.80376 11.9998 9.8038 11.9997C9.80388 11.9995 9.80396 11.9993 9.80403 11.999C9.80418 11.9986 9.80431 11.9982 9.80443 11.9979C9.80466 11.9973 9.80481 11.9968 9.8049 11.9966C9.80507 11.9961 9.80495 11.9964 9.80455 11.9975C9.80375 11.9996 9.80182 12.0047 9.79873 12.0121C9.7925 12.0272 9.7819 12.0512 9.76677 12.0808C9.73553 12.1418 9.69021 12.2157 9.63193 12.2811C9.52439 12.4016 9.40488 12.4697 9.20765 12.4213L8.96971 13.3926ZM11.1793 8.36722C10.8298 8.54295 10.6773 8.83171 10.5627 9.1561C10.4605 9.44528 10.3401 9.91878 10.1541 10.5286L11.1107 10.8202C11.3218 10.1277 11.4099 9.76011 11.5056 9.48919C11.5888 9.25348 11.6235 9.26317 11.6285 9.26068L11.1793 8.36722ZM10.1541 10.5286C10.0219 10.9624 9.92959 11.3623 9.87049 11.6462C9.84086 11.7885 9.81945 11.9022 9.8057 11.9758C9.79839 12.015 9.79439 12.0365 9.79203 12.0482C9.78928 12.0618 9.79245 12.0435 9.79948 12.02C9.8008 12.0156 9.809 11.9875 9.82488 11.9534C9.83055 11.9413 9.85355 11.8917 9.89883 11.8391C9.91548 11.8197 10.1165 11.5863 10.4335 11.6903C10.5696 11.735 10.6481 11.8239 10.6844 11.8747C10.7215 11.9267 10.7403 11.9743 10.749 11.9989C10.7664 12.0483 10.7718 12.089 10.7734 12.1019C10.7774 12.1334 10.7773 12.1581 10.7773 12.163H9.77727C9.77727 12.1695 9.77722 12.1953 9.78132 12.2276C9.783 12.2409 9.78841 12.2819 9.8059 12.3315C9.81462 12.3562 9.83343 12.4038 9.87062 12.4559C9.90698 12.5068 9.98546 12.5957 10.1217 12.6404C10.4388 12.7445 10.6399 12.511 10.6567 12.4915C10.7021 12.4388 10.7252 12.3889 10.731 12.3764C10.7472 12.3418 10.7558 12.3126 10.7575 12.3068C10.7661 12.2779 10.7717 12.2486 10.7723 12.2459C10.7765 12.225 10.7825 12.1928 10.7887 12.1595C10.802 12.0882 10.822 11.9823 10.8495 11.85C10.9047 11.5848 10.99 11.216 11.1107 10.8202L10.1541 10.5286Z" fill="white"/>
</svg>
